<svg id="svg" version="1.1" xmlns="http://www.w3.org/2000/svg" xmlns:xlink="http://www.w3.org/1999/xlink" width="400" height="400" viewBox="0, 0, 400,400"><g id="svgg"><path id="path0" d="M252.858 174.096 C 252.082 177.953,252.332 178.501,254.693 178.124 C 255.973 177.919,256.001 177.936,256.042 178.957 C 256.065 179.531,256.110 180.112,256.143 180.250 C 256.913 183.450,256.491 209.116,255.667 209.226 C 255.392 209.262,254.337 209.383,253.323 209.494 L 251.480 209.696 251.063 211.893 C 250.566 214.515,250.269 214.202,253.500 214.471 C 254.967 214.594,258.255 214.986,260.808 215.344 C 263.361 215.702,265.471 215.959,265.498 215.914 C 266.056 214.994,266.906 211.772,266.657 211.523 C 266.479 211.345,266.333 210.952,266.333 210.649 C 266.333 210.203,265.844 210.056,263.765 209.881 C 262.353 209.761,261.106 209.552,260.994 209.415 C 260.883 209.278,260.879 201.292,260.985 191.667 C 261.092 182.042,261.101 174.073,261.006 173.959 C 260.414 173.248,253.004 173.372,252.858 174.096 M185.400 175.086 C 185.026 175.538,184.910 178.280,185.203 179.750 C 185.416 180.816,186.082 180.920,187.884 180.167 L 189.080 179.667 188.912 185.084 C 188.820 188.063,188.901 192.356,189.093 194.623 C 189.362 197.798,189.337 199.869,188.985 203.623 C 188.733 206.306,188.497 210.027,188.461 211.893 L 188.396 215.286 189.691 215.804 C 191.320 216.456,192.470 216.080,193.264 214.637 L 193.833 213.602 196.500 213.823 C 204.995 214.527,208.719 212.694,210.851 206.758 C 214.555 196.445,208.932 188.000,198.361 188.000 L 195.087 188.000 194.871 186.750 C 194.753 186.063,194.562 183.475,194.449 181.000 C 194.235 176.344,194.001 175.333,193.135 175.333 C 192.836 175.333,192.725 175.492,192.865 175.718 C 193.017 175.964,192.956 176.012,192.695 175.851 C 192.471 175.713,192.358 175.416,192.444 175.192 C 192.669 174.607,185.883 174.504,185.400 175.086 M217.400 175.086 C 217.026 175.538,216.910 178.280,217.203 179.750 C 217.416 180.816,218.082 180.920,219.884 180.167 L 221.080 179.667 220.912 185.084 C 220.820 188.063,220.901 192.356,221.093 194.623 C 221.362 197.798,221.337 199.869,220.985 203.623 C 220.733 206.306,220.497 210.027,220.461 211.893 L 220.396 215.286 221.691 215.804 C 223.320 216.456,224.470 216.080,225.264 214.637 L 225.833 213.602 228.500 213.823 C 236.995 214.527,240.719 212.694,242.851 206.758 C 246.555 196.445,240.932 188.000,230.361 188.000 L 227.087 188.000 226.871 186.750 C 226.753 186.063,226.562 183.475,226.449 181.000 C 226.235 176.344,226.001 175.333,225.135 175.333 C 224.836 175.333,224.725 175.492,224.865 175.718 C 225.017 175.964,224.956 176.012,224.695 175.851 C 224.471 175.713,224.358 175.416,224.444 175.192 C 224.669 174.607,217.883 174.504,217.400 175.086 M260.000 175.964 C 260.000 176.285,259.189 176.673,258.556 176.656 C 258.342 176.650,258.458 176.425,258.814 176.156 C 259.548 175.600,260.000 175.527,260.000 175.964 M254.500 176.333 C 254.613 176.517,254.397 176.667,254.020 176.667 C 253.642 176.667,253.333 176.517,253.333 176.333 C 253.333 176.150,253.549 176.000,253.814 176.000 C 254.078 176.000,254.387 176.150,254.500 176.333 M187.667 177.845 C 187.667 177.930,187.367 178.000,187.000 178.000 C 186.623 178.000,186.333 177.778,186.333 177.488 C 186.333 177.080,186.468 177.049,187.000 177.333 C 187.367 177.530,187.667 177.760,187.667 177.845 M219.667 177.845 C 219.667 177.930,219.367 178.000,219.000 178.000 C 218.623 178.000,218.333 177.778,218.333 177.488 C 218.333 177.080,218.468 177.049,219.000 177.333 C 219.367 177.530,219.667 177.760,219.667 177.845 M135.583 178.103 L 132.333 178.433 132.341 179.800 C 132.345 180.552,132.637 181.804,132.991 182.583 C 133.728 184.207,134.023 186.459,134.107 191.100 L 134.167 194.367 128.500 194.143 C 125.383 194.020,122.733 193.825,122.610 193.709 C 122.198 193.323,121.356 181.750,121.662 180.683 C 122.049 179.333,121.556 179.225,116.730 179.602 C 112.322 179.947,111.509 180.368,112.456 181.813 C 112.960 182.582,113.227 182.667,115.159 182.667 L 117.303 182.667 117.475 183.750 C 117.765 185.580,118.337 199.874,118.335 205.233 L 118.333 210.298 116.592 210.399 L 114.852 210.500 114.569 211.937 C 114.125 214.193,116.011 215.333,120.185 215.333 C 123.257 215.333,123.161 215.638,123.043 206.248 L 122.943 198.239 124.013 198.453 C 124.602 198.570,127.155 198.667,129.688 198.667 L 134.292 198.667 134.464 200.083 C 134.559 200.862,134.757 204.306,134.904 207.736 C 135.225 215.218,134.930 214.772,139.527 214.743 C 143.919 214.716,144.159 214.555,143.823 211.866 C 143.552 209.699,143.334 209.518,140.583 209.184 L 138.667 208.952 138.655 205.226 C 138.649 203.177,138.495 199.925,138.312 198.000 C 138.130 196.075,137.844 192.550,137.677 190.167 C 137.510 187.783,137.214 185.309,137.020 184.669 C 136.372 182.534,136.524 182.053,137.917 181.833 C 140.962 181.354,141.175 181.228,141.065 179.982 C 140.964 178.844,139.958 177.615,139.213 177.720 C 139.004 177.750,137.371 177.922,135.583 178.103 M281.333 187.097 C 277.558 187.954,274.332 192.654,273.345 198.738 C 272.224 205.645,275.430 213.938,279.575 214.854 C 280.084 214.967,281.407 215.348,282.515 215.701 C 285.804 216.748,291.137 215.531,294.324 213.007 C 295.838 211.808,296.453 211.749,297.144 212.736 L 297.659 213.471 298.830 212.337 C 299.473 211.713,300.000 211.039,300.000 210.840 C 300.000 210.239,296.732 206.092,295.653 205.324 L 294.647 204.608 293.324 205.931 C 292.027 207.228,291.603 208.333,292.403 208.333 C 293.042 208.333,289.963 211.321,288.597 212.028 C 283.935 214.437,278.351 210.306,277.183 203.583 C 276.482 199.544,275.842 199.713,289.167 200.417 C 289.533 200.436,291.267 200.425,293.020 200.393 L 296.207 200.333 296.615 198.742 C 297.064 196.991,296.904 196.307,295.181 192.597 C 293.147 188.219,287.053 185.798,281.333 187.097 M152.225 187.362 C 149.625 187.659,149.481 187.864,149.615 191.072 C 149.666 192.293,149.690 192.313,151.291 192.526 C 153.584 192.830,153.599 192.852,153.299 195.500 C 152.393 203.491,153.538 208.560,157.156 212.584 C 159.868 215.600,161.589 215.555,168.074 212.293 C 170.518 211.063,170.465 211.052,171.025 212.917 L 171.500 214.500 175.932 214.667 C 180.949 214.855,180.439 215.158,180.822 211.767 C 181.061 209.655,180.614 209.287,178.252 209.650 C 177.383 209.784,176.595 209.818,176.502 209.725 C 176.217 209.440,176.319 201.947,176.634 200.000 C 177.098 197.135,177.423 190.099,177.067 190.611 C 176.687 191.160,176.247 190.280,176.531 189.540 C 176.745 188.981,175.078 188.333,173.428 188.333 C 172.802 188.333,172.008 188.183,171.665 187.999 C 170.725 187.496,170.675 187.709,169.797 195.936 C 169.353 200.096,168.967 203.670,168.940 203.878 C 168.912 204.086,167.898 205.321,166.687 206.621 L 164.484 208.986 162.659 208.778 C 161.239 208.615,160.592 208.339,159.748 207.534 L 158.662 206.500 158.685 198.311 C 158.701 192.599,158.587 189.856,158.307 189.242 C 157.724 187.962,154.823 187.065,152.225 187.362 M284.667 187.313 C 284.392 187.474,283.567 187.691,282.833 187.794 L 281.500 187.983 282.833 187.517 C 284.427 186.960,285.466 186.845,284.667 187.313 M280.067 188.733 C 279.853 188.947,279.567 189.012,279.432 188.876 C 279.297 188.741,279.402 188.497,279.667 188.333 C 280.289 187.949,280.570 188.230,280.067 188.733 M157.119 188.914 C 157.474 189.124,156.678 189.655,155.997 189.662 C 155.720 189.664,155.298 189.353,155.058 188.969 C 154.633 188.289,156.002 188.253,157.119 188.914 M285.667 189.333 C 286.062 189.589,285.993 189.656,285.333 189.656 C 284.875 189.656,284.275 189.511,284.000 189.333 C 283.604 189.078,283.674 189.010,284.333 189.010 C 284.792 189.010,285.392 189.156,285.667 189.333 M289.428 190.330 C 290.384 190.878,290.983 191.328,290.759 191.330 C 290.155 191.335,287.333 189.910,287.333 189.600 C 287.333 189.182,287.572 189.266,289.428 190.330 M282.333 190.238 C 282.058 190.340,281.533 190.561,281.167 190.730 C 280.511 191.032,280.510 191.028,281.147 190.518 C 281.503 190.233,282.028 190.012,282.314 190.026 C 282.763 190.049,282.765 190.078,282.333 190.238 M287.449 191.027 C 289.357 191.556,292.333 194.548,292.333 195.936 C 292.333 197.133,291.863 197.264,289.705 196.666 C 289.042 196.483,286.322 196.117,283.661 195.852 C 277.507 195.241,277.493 195.236,278.252 193.926 C 279.653 191.505,284.112 190.100,287.449 191.027 M154.597 191.618 C 154.707 191.954,154.542 192.008,153.956 191.831 C 152.682 191.445,152.364 190.933,153.474 191.058 C 154.010 191.118,154.515 191.370,154.597 191.618 M205.007 191.503 C 205.542 191.780,206.154 192.343,206.367 192.753 C 206.708 193.413,206.639 193.393,205.775 192.583 C 205.237 192.079,204.626 191.667,204.418 191.667 C 204.210 191.667,203.947 191.517,203.833 191.333 C 203.547 190.869,203.872 190.917,205.007 191.503 M237.007 191.503 C 237.542 191.780,238.154 192.343,238.367 192.753 C 238.708 193.413,238.639 193.393,237.775 192.583 C 237.237 192.079,236.626 191.667,236.418 191.667 C 236.210 191.667,235.947 191.517,235.833 191.333 C 235.547 190.869,235.872 190.917,237.007 191.503 M204.475 193.417 C 206.256 195.056,208.317 199.560,208.327 201.836 C 208.352 207.272,200.369 211.691,195.137 209.137 L 193.833 208.500 193.736 204.500 C 193.629 200.079,194.115 194.085,194.621 193.579 C 196.497 191.703,202.505 191.604,204.475 193.417 M236.475 193.417 C 238.256 195.056,240.317 199.560,240.327 201.836 C 240.352 207.272,232.369 211.691,227.137 209.137 L 225.833 208.500 225.736 204.500 C 225.629 200.079,226.115 194.085,226.621 193.579 C 228.497 191.703,234.505 191.604,236.475 193.417 M154.704 194.096 C 154.432 194.368,154.333 194.331,154.333 193.956 C 154.333 193.293,154.782 192.845,154.947 193.342 C 155.017 193.552,154.908 193.892,154.704 194.096 M293.455 194.657 C 293.230 194.881,292.676 193.929,292.684 193.333 C 292.687 193.043,292.884 193.183,293.151 193.666 C 293.405 194.124,293.541 194.570,293.455 194.657 M274.684 197.120 C 274.333 198.044,273.908 198.362,274.177 197.500 C 274.263 197.225,274.412 196.754,274.508 196.452 C 274.604 196.151,274.758 195.980,274.851 196.073 C 274.943 196.165,274.868 196.637,274.684 197.120 M284.167 196.981 L 285.500 197.257 283.833 197.262 C 282.917 197.265,281.792 197.147,281.333 197.000 C 280.137 196.617,282.334 196.602,284.167 196.981 M287.167 199.000 L 288.167 199.254 287.167 199.275 C 286.617 199.286,285.567 199.171,284.833 199.019 L 283.500 198.743 284.833 198.744 C 285.567 198.745,286.617 198.860,287.167 199.000 M259.618 208.817 C 259.459 208.993,259.358 206.930,259.388 204.150 L 259.443 199.167 259.673 203.833 C 259.800 206.400,259.775 208.642,259.618 208.817 M274.394 202.143 C 274.467 202.772,274.409 203.213,274.264 203.124 C 274.003 202.962,273.879 201.000,274.130 201.000 C 274.202 201.000,274.320 201.514,274.394 202.143 M157.000 202.539 C 157.000 203.010,156.855 203.283,156.667 203.167 C 156.483 203.053,156.333 202.586,156.333 202.127 C 156.333 201.657,156.478 201.384,156.667 201.500 C 156.850 201.613,157.000 202.081,157.000 202.539 M155.803 206.817 C 156.453 208.637,156.916 210.195,156.832 210.279 C 156.539 210.572,154.602 205.992,154.422 204.582 C 154.166 202.577,154.453 203.041,155.803 206.817 M173.236 207.413 C 173.156 207.827,173.088 207.567,173.084 206.833 C 173.080 206.100,173.146 205.761,173.229 206.079 C 173.312 206.398,173.315 206.998,173.236 207.413 M209.857 207.857 C 209.735 208.346,209.559 208.670,209.468 208.579 C 209.376 208.487,209.401 208.012,209.524 207.524 C 209.646 207.035,209.822 206.711,209.913 206.802 C 210.005 206.894,209.980 207.369,209.857 207.857 M241.857 207.857 C 241.735 208.346,241.559 208.670,241.468 208.579 C 241.376 208.487,241.401 208.012,241.524 207.524 C 241.646 207.035,241.822 206.711,241.913 206.802 C 242.005 206.894,241.980 207.369,241.857 207.857 M172.436 213.639 C 172.129 214.054,171.865 213.079,171.788 211.243 L 171.702 209.167 172.120 211.333 C 172.351 212.525,172.493 213.563,172.436 213.639 M162.958 210.657 C 163.285 210.835,163.131 211.005,162.421 211.253 C 161.564 211.552,161.294 211.487,160.463 210.785 L 159.500 209.971 161.000 210.190 C 161.825 210.310,162.706 210.520,162.958 210.657 M166.000 210.491 C 166.000 210.717,164.320 211.542,163.333 211.801 C 162.875 211.922,163.175 211.648,164.000 211.192 C 165.492 210.368,166.000 210.190,166.000 210.491 M164.000 213.333 C 162.649 214.073,160.782 214.178,159.438 213.588 C 158.580 213.212,158.756 213.161,161.500 212.985 C 163.150 212.879,164.650 212.771,164.833 212.744 C 165.017 212.717,164.642 212.982,164.000 213.333 M289.500 214.667 C 289.133 214.824,288.383 214.953,287.833 214.953 C 286.981 214.953,286.932 214.911,287.500 214.667 C 287.867 214.509,288.617 214.380,289.167 214.380 C 290.019 214.380,290.068 214.422,289.500 214.667 " stroke="none" fill="#ece4ec" fill-rule="evenodd"></path><path id="path1" d="M70.641 146.641 C 68.382 148.900,70.555 152.708,73.754 152.097 C 77.521 151.377,76.851 145.667,73.000 145.667 C 71.914 145.667,71.405 145.877,70.641 146.641 M89.692 149.863 C 87.289 151.885,89.361 156.111,92.470 155.528 C 93.070 155.415,93.890 154.972,94.293 154.543 C 97.139 151.514,92.879 147.181,89.692 149.863 M53.459 151.479 C 50.068 152.955,50.988 157.667,54.667 157.667 C 58.175 157.667,59.301 153.010,56.153 151.516 C 54.857 150.901,54.790 150.900,53.459 151.479 M105.461 160.848 C 103.751 161.713,103.231 163.524,104.170 165.340 C 105.210 167.350,108.029 167.687,109.470 165.974 C 111.802 163.204,108.683 159.217,105.461 160.848 M39.062 165.166 C 35.944 167.789,39.048 172.371,42.673 170.497 C 43.884 169.870,44.333 169.059,44.333 167.496 C 44.333 164.782,41.177 163.386,39.062 165.166 M34.105 182.480 C 31.921 183.446,31.438 186.376,33.191 188.022 C 36.155 190.807,40.512 186.343,37.750 183.350 C 36.626 182.132,35.500 181.863,34.105 182.480 M36.545 201.545 C 35.004 203.087,35.411 205.839,37.327 206.830 C 39.646 208.029,42.000 206.604,42.000 204.000 C 42.000 201.064,38.570 199.521,36.545 201.545 M103.109 212.257 C 102.115 212.416,100.753 213.849,100.500 215.000 C 99.838 218.016,103.885 220.024,106.121 217.788 C 108.488 215.421,106.470 211.716,103.109 212.257 M48.308 216.308 C 46.899 217.717,46.956 219.356,48.467 220.867 C 51.311 223.711,55.491 220.460,53.445 216.997 C 52.320 215.092,49.854 214.761,48.308 216.308 M84.974 222.974 C 82.642 225.307,84.546 228.586,88.109 228.370 C 91.849 228.144,91.101 222.000,87.333 222.000 C 86.247 222.000,85.739 222.210,84.974 222.974 M66.062 223.832 C 64.812 224.884,64.524 226.014,65.135 227.475 C 66.059 229.687,68.631 230.285,70.404 228.701 C 73.593 225.851,69.336 221.077,66.062 223.832 " stroke="none" fill="#646ccc" fill-rule="evenodd"></path><path id="path2" d="M72.212 156.691 C 70.462 158.067,71.489 160.667,73.782 160.667 C 75.928 160.667,76.880 158.213,75.333 156.667 C 74.476 155.810,73.320 155.819,72.212 156.691 M86.651 159.945 C 85.737 160.686,85.676 162.423,86.530 163.367 C 87.298 164.215,89.136 164.197,90.000 163.333 C 92.030 161.303,88.893 158.130,86.651 159.945 M59.684 161.586 C 58.769 162.326,58.675 164.089,59.501 165.001 C 60.327 165.913,62.108 165.881,62.987 164.937 C 64.976 162.802,61.960 159.742,59.684 161.586 M97.552 168.610 C 96.793 169.448,96.852 171.185,97.667 172.000 C 99.109 173.443,101.667 172.377,101.667 170.333 C 101.667 168.317,98.875 167.148,97.552 168.610 M50.440 171.063 C 48.702 171.904,48.776 174.678,50.555 175.354 C 53.005 176.286,55.017 173.321,53.182 171.485 C 52.307 170.610,51.602 170.501,50.440 171.063 M46.086 183.262 C 44.388 183.527,43.777 186.028,45.105 187.275 C 47.222 189.265,50.189 186.512,48.510 184.116 C 47.971 183.346,47.227 183.084,46.086 183.262 M48.212 197.691 C 46.547 199.001,47.559 202.000,49.667 202.000 C 51.708 202.000,52.680 199.316,51.182 197.818 C 50.182 196.819,49.365 196.784,48.212 197.691 M95.333 206.667 C 93.916 208.084,94.951 210.667,96.937 210.667 C 98.967 210.667,100.181 207.870,98.724 206.552 C 97.885 205.793,96.148 205.852,95.333 206.667 M57.617 208.399 C 55.622 209.079,55.729 212.095,57.773 212.815 C 59.844 213.543,61.751 211.165,60.471 209.450 C 59.644 208.342,58.748 208.013,57.617 208.399 M84.167 212.600 C 83.045 212.828,82.333 213.705,82.333 214.861 C 82.333 217.893,86.642 218.041,86.940 215.019 C 87.103 213.365,85.839 212.262,84.167 212.600 M69.058 214.105 C 67.569 215.690,68.591 218.000,70.782 218.000 C 72.195 218.000,73.112 217.033,73.071 215.587 C 73.012 213.508,70.493 212.578,69.058 214.105 " stroke="none" fill="#b494e4" fill-rule="evenodd"></path><path id="path3" d="M256.103 182.500 C 256.105 183.600,256.167 184.010,256.242 183.411 C 256.316 182.812,256.314 181.912,256.238 181.411 C 256.162 180.910,256.101 181.400,256.103 182.500 M194.411 182.000 C 194.411 182.642,194.479 182.904,194.563 182.583 C 194.647 182.262,194.647 181.737,194.563 181.417 C 194.479 181.096,194.411 181.358,194.411 182.000 M226.411 182.000 C 226.411 182.642,226.479 182.904,226.563 182.583 C 226.647 182.262,226.647 181.737,226.563 181.417 C 226.479 181.096,226.411 181.358,226.411 182.000 M115.587 182.902 C 116.002 182.982,116.602 182.979,116.921 182.896 C 117.239 182.812,116.900 182.747,116.167 182.751 C 115.433 182.754,115.173 182.823,115.587 182.902 M117.411 184.667 C 117.411 185.308,117.479 185.571,117.563 185.250 C 117.647 184.929,117.647 184.404,117.563 184.083 C 117.479 183.762,117.411 184.025,117.411 184.667 M188.751 187.500 C 188.754 188.233,188.823 188.494,188.902 188.079 C 188.982 187.665,188.979 187.065,188.896 186.746 C 188.812 186.427,188.747 186.767,188.751 187.500 M220.751 187.500 C 220.754 188.233,220.823 188.494,220.902 188.079 C 220.982 187.665,220.979 187.065,220.896 186.746 C 220.812 186.427,220.747 186.767,220.751 187.500 M197.921 187.902 C 198.335 187.982,198.935 187.979,199.254 187.896 C 199.573 187.812,199.233 187.747,198.500 187.751 C 197.767 187.754,197.506 187.823,197.921 187.902 M229.921 187.902 C 230.335 187.982,230.935 187.979,231.254 187.896 C 231.573 187.812,231.233 187.747,230.500 187.751 C 229.767 187.754,229.506 187.823,229.921 187.902 M256.411 193.000 C 256.411 193.642,256.479 193.904,256.563 193.583 C 256.647 193.262,256.647 192.737,256.563 192.417 C 256.479 192.096,256.411 192.358,256.411 193.000 M290.500 193.333 C 291.216 194.067,291.877 194.667,291.969 194.667 C 292.060 194.667,291.549 194.067,290.833 193.333 C 290.117 192.600,289.456 192.000,289.365 192.000 C 289.273 192.000,289.784 192.600,290.500 193.333 M130.250 194.235 C 130.662 194.315,131.337 194.315,131.750 194.235 C 132.162 194.156,131.825 194.091,131.000 194.091 C 130.175 194.091,129.837 194.156,130.250 194.235 M118.084 198.167 C 118.088 198.900,118.156 199.161,118.236 198.746 C 118.315 198.331,118.312 197.731,118.229 197.413 C 118.146 197.094,118.080 197.433,118.084 198.167 M134.424 201.333 C 134.424 202.158,134.489 202.496,134.569 202.083 C 134.648 201.671,134.648 200.996,134.569 200.583 C 134.489 200.171,134.424 200.508,134.424 201.333 M212.095 202.167 C 212.098 203.083,212.163 203.419,212.239 202.912 C 212.316 202.405,212.314 201.655,212.235 201.245 C 212.156 200.835,212.093 201.250,212.095 202.167 M244.095 202.167 C 244.098 203.083,244.163 203.419,244.239 202.912 C 244.316 202.405,244.314 201.655,244.235 201.245 C 244.156 200.835,244.093 201.250,244.095 202.167 M256.417 202.167 C 256.421 202.900,256.489 203.161,256.569 202.746 C 256.649 202.331,256.646 201.731,256.562 201.413 C 256.479 201.094,256.414 201.433,256.417 202.167 M260.770 207.167 C 260.772 208.267,260.834 208.676,260.908 208.077 C 260.982 207.478,260.981 206.578,260.905 206.077 C 260.829 205.576,260.768 206.067,260.770 207.167 M134.751 210.500 C 134.754 211.233,134.823 211.494,134.902 211.079 C 134.982 210.665,134.979 210.065,134.896 209.746 C 134.812 209.427,134.747 209.767,134.751 210.500 M171.703 210.983 C 171.679 212.176,171.779 212.687,171.995 212.472 C 172.201 212.266,172.215 211.591,172.031 210.655 L 171.740 209.167 171.703 210.983 M160.921 213.236 C 161.335 213.315,161.935 213.312,162.254 213.229 C 162.573 213.146,162.233 213.080,161.500 213.084 C 160.767 213.088,160.506 213.156,160.921 213.236 M200.254 214.236 C 200.669 214.315,201.269 214.312,201.587 214.229 C 201.906 214.146,201.567 214.080,200.833 214.084 C 200.100 214.088,199.839 214.156,200.254 214.236 M232.254 214.236 C 232.669 214.315,233.269 214.312,233.587 214.229 C 233.906 214.146,233.567 214.080,232.833 214.084 C 232.100 214.088,231.839 214.156,232.254 214.236 M136.750 214.896 C 137.071 214.980,137.596 214.980,137.917 214.896 C 138.237 214.813,137.975 214.744,137.333 214.744 C 136.692 214.744,136.429 214.813,136.750 214.896 M140.417 214.896 C 140.737 214.980,141.262 214.980,141.583 214.896 C 141.904 214.813,141.642 214.744,141.000 214.744 C 140.358 214.744,140.096 214.813,140.417 214.896 " stroke="none" fill="#f0c4dc" fill-rule="evenodd"></path><path id="path4" d="M256.103 182.500 C 256.105 183.600,256.167 184.010,256.242 183.411 C 256.316 182.812,256.314 181.912,256.238 181.411 C 256.162 180.910,256.101 181.400,256.103 182.500 M194.411 182.000 C 194.411 182.642,194.479 182.904,194.563 182.583 C 194.647 182.262,194.647 181.737,194.563 181.417 C 194.479 181.096,194.411 181.358,194.411 182.000 M226.411 182.000 C 226.411 182.642,226.479 182.904,226.563 182.583 C 226.647 182.262,226.647 181.737,226.563 181.417 C 226.479 181.096,226.411 181.358,226.411 182.000 M115.587 182.902 C 116.002 182.982,116.602 182.979,116.921 182.896 C 117.239 182.812,116.900 182.747,116.167 182.751 C 115.433 182.754,115.173 182.823,115.587 182.902 M117.411 184.667 C 117.411 185.308,117.479 185.571,117.563 185.250 C 117.647 184.929,117.647 184.404,117.563 184.083 C 117.479 183.762,117.411 184.025,117.411 184.667 M188.751 187.500 C 188.754 188.233,188.823 188.494,188.902 188.079 C 188.982 187.665,188.979 187.065,188.896 186.746 C 188.812 186.427,188.747 186.767,188.751 187.500 M220.751 187.500 C 220.754 188.233,220.823 188.494,220.902 188.079 C 220.982 187.665,220.979 187.065,220.896 186.746 C 220.812 186.427,220.747 186.767,220.751 187.500 M197.921 187.902 C 198.335 187.982,198.935 187.979,199.254 187.896 C 199.573 187.812,199.233 187.747,198.500 187.751 C 197.767 187.754,197.506 187.823,197.921 187.902 M229.921 187.902 C 230.335 187.982,230.935 187.979,231.254 187.896 C 231.573 187.812,231.233 187.747,230.500 187.751 C 229.767 187.754,229.506 187.823,229.921 187.902 M256.411 193.000 C 256.411 193.642,256.479 193.904,256.563 193.583 C 256.647 193.262,256.647 192.737,256.563 192.417 C 256.479 192.096,256.411 192.358,256.411 193.000 M290.500 193.333 C 291.216 194.067,291.877 194.667,291.969 194.667 C 292.060 194.667,291.549 194.067,290.833 193.333 C 290.117 192.600,289.456 192.000,289.365 192.000 C 289.273 192.000,289.784 192.600,290.500 193.333 M130.250 194.235 C 130.662 194.315,131.337 194.315,131.750 194.235 C 132.162 194.156,131.825 194.091,131.000 194.091 C 130.175 194.091,129.837 194.156,130.250 194.235 M118.084 198.167 C 118.088 198.900,118.156 199.161,118.236 198.746 C 118.315 198.331,118.312 197.731,118.229 197.413 C 118.146 197.094,118.080 197.433,118.084 198.167 M134.424 201.333 C 134.424 202.158,134.489 202.496,134.569 202.083 C 134.648 201.671,134.648 200.996,134.569 200.583 C 134.489 200.171,134.424 200.508,134.424 201.333 M212.095 202.167 C 212.098 203.083,212.163 203.419,212.239 202.912 C 212.316 202.405,212.314 201.655,212.235 201.245 C 212.156 200.835,212.093 201.250,212.095 202.167 M244.095 202.167 C 244.098 203.083,244.163 203.419,244.239 202.912 C 244.316 202.405,244.314 201.655,244.235 201.245 C 244.156 200.835,244.093 201.250,244.095 202.167 M256.417 202.167 C 256.421 202.900,256.489 203.161,256.569 202.746 C 256.649 202.331,256.646 201.731,256.562 201.413 C 256.479 201.094,256.414 201.433,256.417 202.167 M260.770 207.167 C 260.772 208.267,260.834 208.676,260.908 208.077 C 260.982 207.478,260.981 206.578,260.905 206.077 C 260.829 205.576,260.768 206.067,260.770 207.167 M134.751 210.500 C 134.754 211.233,134.823 211.494,134.902 211.079 C 134.982 210.665,134.979 210.065,134.896 209.746 C 134.812 209.427,134.747 209.767,134.751 210.500 M171.703 210.983 C 171.679 212.176,171.779 212.687,171.995 212.472 C 172.201 212.266,172.215 211.591,172.031 210.655 L 171.740 209.167 171.703 210.983 M160.921 213.236 C 161.335 213.315,161.935 213.312,162.254 213.229 C 162.573 213.146,162.233 213.080,161.500 213.084 C 160.767 213.088,160.506 213.156,160.921 213.236 M200.254 214.236 C 200.669 214.315,201.269 214.312,201.587 214.229 C 201.906 214.146,201.567 214.080,200.833 214.084 C 200.100 214.088,199.839 214.156,200.254 214.236 M232.254 214.236 C 232.669 214.315,233.269 214.312,233.587 214.229 C 233.906 214.146,233.567 214.080,232.833 214.084 C 232.100 214.088,231.839 214.156,232.254 214.236 M136.750 214.896 C 137.071 214.980,137.596 214.980,137.917 214.896 C 138.237 214.813,137.975 214.744,137.333 214.744 C 136.692 214.744,136.429 214.813,136.750 214.896 M140.417 214.896 C 140.737 214.980,141.262 214.980,141.583 214.896 C 141.904 214.813,141.642 214.744,141.000 214.744 C 140.358 214.744,140.096 214.813,140.417 214.896 " stroke="none" fill="#f0c4dc" fill-rule="evenodd"></path></g></svg>